<mxfile host="app.diagrams.net" modified="2023-12-28T08:22:56.676Z" agent="Mozilla/5.0 (Windows NT 10.0; Win64; x64) AppleWebKit/537.36 (KHTML, like Gecko) Chrome/120.0.0.0 Safari/537.36 Edg/120.0.0.0" version="21.6.5" etag="ARmWxFmu67_nev_w8sLf" type="github">
  <diagram name="第 1 页" id="Tl0CjAMw8aQlF9DPNo0h">
    <mxGraphModel>
      <root>
        <mxCell id="0" />
        <mxCell id="1" parent="0" />
      </root>
    </mxGraphModel>
  </diagram>
</mxfile>
